<svg width="80" height="40" viewBox="0 0 80 40" fill="none" xmlns="http://www.w3.org/2000/svg">
<g id="logo-full.svg" clip-path="url(#clip0_1_8)">
<path id="Vector" d="M13.4918 4.15125C13.0604 6.59816 14.5577 8.17116 17.5748 8.17116C20.651 8.17116 22.644 6.59816 23.0754 4.15125C23.5171 1.64612 22.0789 0.0731201 19.0027 0.0731201C15.9856 0.0731201 13.9335 1.64612 13.4918 4.15125Z" fill="#181818"/>
<path id="Vector_2" d="M25.0894 4.15137C24.658 6.59829 26.1553 8.17128 29.1724 8.17128C32.2486 8.17128 34.2415 6.59829 34.673 4.15137C35.1147 1.64624 33.6765 0.0732422 30.6003 0.0732422C27.5832 0.0732422 25.5311 1.64624 25.0894 4.15137Z" fill="#181818"/>
<path id="Vector_3" d="M8.382 39.6711C5.98771 39.6711 0.170088 38.3982 0.77286 34.9797C1.90962 28.5329 7.98305 34.7229 8.74856 28.8062L10.3056 19.9755C10.8437 16.924 11.4166 14.4736 12.1571 12.6705C12.9996 10.8211 14.4853 9.85022 16.6918 9.85022C18.9453 9.85022 19.9846 11.1448 20.0608 13.6414C20.0861 16.6929 19.3361 20.9464 18.2274 27.2342C18.1785 27.5116 18.1377 27.7428 18.0969 27.9739C16.7518 35.6025 13.1237 39.6711 8.382 39.6711Z" fill="#181818"/>
<path id="Vector_4" d="M24.3804 33.5683C22.5025 33.5683 21.4899 32.921 21.0609 31.6264C20.5093 29.962 21.0125 26.3095 21.8196 21.7323C22.5778 17.4326 23.4197 13.4565 24.5113 11.7921C25.3968 10.4975 26.7316 9.85022 28.5625 9.85022C30.3935 9.85022 31.453 10.4975 31.8738 11.8383C32.4642 13.5489 31.8264 17.4326 31.0682 21.7323C30.253 26.3558 29.5232 29.962 28.3684 31.7189C27.5379 32.9672 26.2113 33.5683 24.3804 33.5683Z" fill="#181818"/>
<path id="Vector_5" d="M42.2048 33.7532C38.8716 33.7532 36.7154 31.0716 35.4486 26.5407C34.3475 22.9344 33.9114 18.2186 34.4739 15.0285C35.0364 11.8383 35.9891 9.89648 39.5102 9.89648C41.9985 9.89648 42.8174 11.3759 42.91 14.8435C43.0209 16.8778 43.0866 18.6347 43.0383 21.0388C43.1084 23.3043 43.4779 24.1366 43.9004 24.1366C44.37 24.1366 44.9862 23.3043 45.8549 21.0388C46.7099 18.5884 47.387 16.8778 48.215 14.8435C49.4837 11.3759 50.8245 9.89648 53.4067 9.89648C56.8806 9.89648 57.1954 11.8383 56.6331 15.0285C56.0704 18.2186 53.9713 22.9344 51.5986 26.5407C48.687 31.0716 45.5849 33.7532 42.2048 33.7532Z" fill="#181818"/>
<path id="Vector_6" d="M67.6782 33.7532C58.101 33.7532 56.0847 26.8181 56.9812 21.7324C57.8619 16.7391 62.0117 9.71155 70.6967 9.71155C77.3163 9.71155 79.8954 13.4565 78.9252 18.9584C78.3875 22.0098 76.7263 23.4431 73.9093 23.4431C71.1395 23.4431 67.9083 23.3968 66.0305 23.3968C65.3261 23.3968 65.0893 23.6742 65.0077 24.1366C64.8287 25.1537 65.6005 26.6332 68.6052 26.6332C70.53 26.6332 72.1056 26.2171 74.5001 26.2171C76.6127 26.2171 77.4498 27.3267 77.1318 29.1298C76.659 31.8114 73.7347 33.7532 67.6782 33.7532ZM69.2134 19.1895C71.6546 19.1895 72.0791 18.9121 72.2339 18.0337C72.4624 16.7391 71.6804 15.5833 69.7555 15.5833C67.6897 15.5833 66.2796 16.9241 66.0515 18.2186C65.9129 19.0046 66.2558 19.1895 69.2134 19.1895Z" fill="#181818"/>
</g>
<defs>
<clipPath id="clip0_1_8">
<rect width="78.8" height="39.994" fill="white" transform="translate(0.589691 0.00305176)"/>
</clipPath>
</defs>
</svg>
